<?xml version="1.0" encoding="UTF-8"?>
<!DOCTYPE svg PUBLIC "-//W3C//DTD SVG 1.1//EN" "http://www.w3.org/Graphics/SVG/1.1/DTD/svg11.dtd">
<!-- Creator: CorelDRAW 2019 (64 Bit) -->
<svg xmlns="http://www.w3.org/2000/svg" xml:space="preserve" width="187.4%" height="187.4%" version="1.1" style="shape-rendering:geometricPrecision; text-rendering:geometricPrecision; image-rendering:optimizeQuality; fill-rule:evenodd; clip-rule:evenodd"
viewBox="0 0 556578 393540"
 xmlns:xlink="http://www.w3.org/1999/xlink">
 <defs>
  <style type="text/css">
   <![CDATA[
    .fil0 {fill:#CCE7D4}
    .fil2 {fill:#57A695}
    .fil1 {fill:#5CA47A}
   ]]>
  </style>
   <clipPath id="id0">
    <rect x="-1060524.9" y="344313.6" width="357763.1" height="357763.1"/>
   </clipPath>
 </defs>
 <g id="Camada_x0020_1">
  <metadata id="CorelCorpID_0Corel-Layer"/>
  <g style="clip-path:url(#id0)">
   <image id="cuidadora-de-idosos-1-bordado-profissoes.jpg" x="-1060524.9" y="344313.6" width="357763.1" height="357763.1" xlink:href="SenilCarepequena_Images\SenilCarepequena_ImgID1.png"/>
  </g>
  <path class="fil0" d="M291223 299910.1c-32229.4,4987.5 -50258.8,477.9 -59472.1,-9929.2 5852.1,-14999.1 16257.7,-29371.4 35873.8,-42472.1 -18950.5,-15141 -24255.2,-29769.8 -23907.9,-42506.6 712.5,-26105.9 37923,-41535.3 59668.5,-25434.7 11021.4,8160 17243,24493.4 7898.2,53525.8 35403.6,617.5 58719.7,12589.7 72762.9,32838.1 -11241.4,49835.8 -54138.9,80847.2 -122485.6,95940.4l38053.3 -21423.8c27418.3,-45511 -15429.6,-32147 -8391,-40537.8z"/>
  <path class="fil0" d="M203051.5 276983c-4224,-44856.1 -12072.3,-74880.7 -42088.2,-63746.5 -32790.3,14426.1 -48208.8,51975.6 -46980.1,105207.3 104459.2,94694 250958.8,20227.2 219764.9,-20010.9 -2114.4,-2727.8 -6929.9,-3802.7 -12579,-5124.1 -69692,25350.2 -110613.4,21157.8 -118117.7,-16325.7z"/>
  <path class="fil1" d="M214181.7 217260.1c11341.6,12023.6 22182.2,25559.3 29784,48859.3 14127.7,27884.7 26227,33820.3 74966,32226.6l-53488.6 17381.7c-44114,6130.2 -66631.6,-10392.3 -66989.5,-53847.9 -4643.2,-43769.9 -24560.5,-60163.5 -58221.2,-31408.1 6295,-11991.5 17225.6,-22751.9 36607.1,-31482.3 -5142.1,-12213.2 -9612.3,-22327.4 -7528.8,-29754.4 9191.2,-32762.8 45233.5,-35173.1 63865.9,-19556.7 17026.4,14270.3 20245.6,42813.4 -18994.9,67581.7z"/>
  <path class="fil2" d="M58827.1 164547.7c-764,-25211.5 1026,-51810.7 12856.2,-78041.2 11457.4,-19292.5 26308.1,-33917.3 46047.2,-41651.1 20442.5,-10543.7 45860.9,-11135.9 77867.9,1449.9 27893.6,11832.1 46671.2,31767.9 59694.8,56817.8 10446.4,-15929.2 23180.8,-34645.4 37370.2,-45444.7 38791.1,-29522.8 114556.5,-18898.5 138421.5,48168.2 27416.2,89645.6 -29378.3,169277.1 -108897,205835.7 -28409.3,14059.3 -45768.1,15526.8 -74177,9757.9 -13821.5,-5447.2 -17077.4,4313.8 -9416.3,24068.2l-45744.9 -14606.9c-14110.7,1811.8 -6819.9,6861.3 -10761.3,8661.4 -1864.1,6078.9 5467.6,10554.2 9920,15730.5 12278.4,14272.2 39494.6,25694.8 73481.8,28153.9 30481.4,2205.1 62628.9,-4083.6 79320.8,-11136.6 168412.6,-71164.4 208856.7,-310525.2 60561.7,-356973.4 -56134.9,-17582.6 -114600.3,-3963.5 -154122.3,46982.9 -95867.7,-111287.7 -260514.7,-20209.8 -192423.3,102227.6z"/>
 </g>
</svg>
